<svg enable-background="new 0 0 252.66 30.28" viewBox="0 0 252.66 30.28" xmlns="http://www.w3.org/2000/svg"><path d="m17.79 29.54v-13.1h-12.36v13.1h-5.43v-28.81h5.43v10.85h12.36v-10.85h5.43v28.81z"/><path d="m45.13 18.16v11.38h-5.35v-11.38l-9.63-17.43h6.12l6.24 11.92 6.29-11.92h6.04z"/><path d="m63.9 29.54h-4.86l13.67-28.81h4.86z"/><path d="m105.93 27.3c-3.47 2.94-8.12 2.98-9.43 2.98-1.71 0-7.22-.08-11.22-4.28-.49-.53-1.02-1.22-1.39-1.88l4.53-3.14c1.27 1.88 3.63 4.33 8.94 4.33.24 0 1.26 0 2.12-.2.61-.12 3.43-.9 3.43-3.59 0-.29-.04-1.06-.53-1.71-.98-1.31-3.59-1.67-5.02-2l-3.43-.78c-1.47-.33-3.06-.65-4.37-1.35-1.35-.69-4.12-2.53-4.12-6.69 0-.65.08-2.53 1.1-4.24 1.31-2.22 4.45-4.75 10.29-4.75 2.57 0 7.63.41 11.63 5.83l-4.45 3.3c-.9-1.43-2.94-4.28-7.47-4.28-.29 0-3.92-.04-5.1 2.2-.24.45-.33.86-.33 1.31 0 .49.12.9.37 1.31.69 1.18 2.28 1.55 4.94 2.12l2.98.65c2.73.61 5.75 1.43 7.67 3.67.82.9 1.67 2.2 1.67 4.86-0 2.61-.81 4.61-2.81 6.33z"/><path d="m140.24 23.67c-.94 2.9-4.24 6.61-11.3 6.61-3.39 0-6.77-.82-9.14-3.43-.37-.37-1.35-1.55-1.84-3.1-.45-1.47-.45-2.82-.45-5.88v-17.14h5.43v17.71c0 1.71 0 2.33.29 3.18.53 1.71 2.08 3.43 5.92 3.43.69 0 4.65 0 5.83-3.26.33-.94.37-1.71.37-3.63v-17.43h5.39v16.61c-.01 3.31.03 4.69-.5 6.33z"/><path d="m149.75 19.46v-4.61h11.79v4.61z"/><path d="m188.27 18.12c-2.49 1.59-5.18 1.63-8 1.63h-4.2v9.79h-5.39v-28.81h9.71c.69 0 1.39-.04 2.08 0 1.26.08 4.9.33 7.47 3.35 2.08 2.41 2.16 5.1 2.16 6.24-0 4.49-2.32 6.82-3.83 7.8zm-2.37-10.65c-1.22-2.12-3.63-2.12-5.71-2.12h-4.12v10h3.88c.37 0 .78-.04 1.14-.04 2.77-.12 4-.98 4.69-2.12.29-.49.78-1.55.78-3.02 0-.91-.21-1.89-.66-2.7z"/><path d="m200.92 29.54v-28.81h20.48v4.82h-15.18v6.77h13.91v4.65h-13.91v7.71h16.2v4.86z"/><path d="m246.5 29.54-5.67-10.69h-4.86v10.69h-5.35v-28.81h11.79c1.31 0 5.18.12 7.75 3.51 1.67 2.2 1.75 4.69 1.75 5.63 0 .45-.04 1.88-.53 3.22-.45 1.18-1.84 3.67-5.14 4.69l6.41 11.75h-6.15zm-1.84-23.3c-.94-.61-2.04-.86-4.33-.86h-4.37v8.98h1.92c3.14 0 5.1 0 6.41-.69.82-.45 2.16-1.51 2.16-3.83.01-.74-.07-2.45-1.79-3.6z"/></svg>