<?xml version="1.0" encoding="utf-8"?>
<!-- Generator: Adobe Illustrator 23.0.4, SVG Export Plug-In . SVG Version: 6.00 Build 0)  -->
<svg version="1.1" id="Layer_1" xmlns="http://www.w3.org/2000/svg" xmlns:xlink="http://www.w3.org/1999/xlink" x="0px" y="0px"
	 viewBox="0 0 252.66 30.28" style="enable-background:new 0 0 252.66 30.28;" xml:space="preserve">
<g>
	<path d="M17.79,29.54v-13.1H5.43v13.1H0V0.73h5.43v10.85h12.36V0.73h5.43v28.81H17.79z"/>
	<path d="M45.13,18.16v11.38h-5.35V18.16L30.15,0.73h6.12l6.24,11.92L48.8,0.73h6.04L45.13,18.16z"/>
	<path d="M63.9,29.54h-4.86L72.71,0.73h4.86L63.9,29.54z"/>
	<path d="M105.93,27.3c-3.47,2.94-8.12,2.98-9.43,2.98c-1.71,0-7.22-0.08-11.22-4.28c-0.49-0.53-1.02-1.22-1.39-1.88l4.53-3.14
		c1.27,1.88,3.63,4.33,8.94,4.33c0.24,0,1.26,0,2.12-0.2c0.61-0.12,3.43-0.9,3.43-3.59c0-0.29-0.04-1.06-0.53-1.71
		c-0.98-1.31-3.59-1.67-5.02-2l-3.43-0.78c-1.47-0.33-3.06-0.65-4.37-1.35c-1.35-0.69-4.12-2.53-4.12-6.69
		c0-0.65,0.08-2.53,1.1-4.24C87.85,2.53,90.99,0,96.83,0c2.57,0,7.63,0.41,11.63,5.83l-4.45,3.3c-0.9-1.43-2.94-4.28-7.47-4.28
		c-0.29,0-3.92-0.04-5.1,2.2c-0.24,0.45-0.33,0.86-0.33,1.31c0,0.49,0.12,0.9,0.37,1.31c0.69,1.18,2.28,1.55,4.94,2.12l2.98,0.65
		c2.73,0.61,5.75,1.43,7.67,3.67c0.82,0.9,1.67,2.2,1.67,4.86C108.74,23.58,107.93,25.58,105.93,27.3z"/>
	<path d="M140.24,23.67c-0.94,2.9-4.24,6.61-11.3,6.61c-3.39,0-6.77-0.82-9.14-3.43c-0.37-0.37-1.35-1.55-1.84-3.1
		c-0.45-1.47-0.45-2.82-0.45-5.88V0.73h5.43v17.71c0,1.71,0,2.33,0.29,3.18c0.53,1.71,2.08,3.43,5.92,3.43c0.69,0,4.65,0,5.83-3.26
		c0.33-0.94,0.37-1.71,0.37-3.63V0.73h5.39v16.61C140.73,20.65,140.77,22.03,140.24,23.67z"/>
	<path d="M149.75,19.46v-4.61h11.79v4.61H149.75z"/>
	<path d="M188.27,18.12c-2.49,1.59-5.18,1.63-8,1.63h-4.2v9.79h-5.39V0.73h9.71c0.69,0,1.39-0.04,2.08,0
		c1.26,0.08,4.9,0.33,7.47,3.35c2.08,2.41,2.16,5.1,2.16,6.24C192.1,14.81,189.78,17.14,188.27,18.12z M185.9,7.47
		c-1.22-2.12-3.63-2.12-5.71-2.12h-4.12v10h3.88c0.37,0,0.78-0.04,1.14-0.04c2.77-0.12,4-0.98,4.69-2.12
		c0.29-0.49,0.78-1.55,0.78-3.02C186.56,9.26,186.35,8.28,185.9,7.47z"/>
	<path d="M200.92,29.54V0.73h20.48v4.82h-15.18v6.77h13.91v4.65h-13.91v7.71h16.2v4.86H200.92z"/>
	<path d="M246.5,29.54l-5.67-10.69h-4.86v10.69h-5.35V0.73h11.79c1.31,0,5.18,0.12,7.75,3.51c1.67,2.2,1.75,4.69,1.75,5.63
		c0,0.45-0.04,1.88-0.53,3.22c-0.45,1.18-1.84,3.67-5.14,4.69l6.41,11.75H246.5z M244.66,6.24c-0.94-0.61-2.04-0.86-4.33-0.86h-4.37
		v8.98h1.92c3.14,0,5.1,0,6.41-0.69c0.82-0.45,2.16-1.51,2.16-3.83C246.46,9.1,246.38,7.39,244.66,6.24z"/>
</g>
</svg>
